<mxfile host="app.diagrams.net" modified="2024-04-30T22:13:25.835Z" agent="Mozilla/5.0 (Windows NT 10.0; Win64; x64) AppleWebKit/537.36 (KHTML, like Gecko) Chrome/124.0.0.0 Safari/537.36" etag="VINUgMqtZ179XptaG9Da" version="24.3.1" type="device">
  <diagram name="Page-1" id="N8vr7S4GNqqB9uquXOqX">
    <mxGraphModel dx="1802" dy="845" grid="1" gridSize="10" guides="1" tooltips="1" connect="1" arrows="1" fold="1" page="1" pageScale="1" pageWidth="850" pageHeight="1100" math="0" shadow="0">
      <root>
        <mxCell id="0" />
        <mxCell id="1" parent="0" />
        <mxCell id="nUbN1-PU3jVC_skDTHLs-14" value="" style="endArrow=classic;html=1;rounded=0;" parent="1" edge="1">
          <mxGeometry width="50" height="50" relative="1" as="geometry">
            <mxPoint x="350" y="620" as="sourcePoint" />
            <mxPoint x="350" y="370" as="targetPoint" />
          </mxGeometry>
        </mxCell>
        <mxCell id="nUbN1-PU3jVC_skDTHLs-13" value="" style="endArrow=classic;html=1;rounded=0;" parent="1" source="nUbN1-PU3jVC_skDTHLs-3" target="nUbN1-PU3jVC_skDTHLs-9" edge="1">
          <mxGeometry width="50" height="50" relative="1" as="geometry">
            <mxPoint x="400" y="560" as="sourcePoint" />
            <mxPoint x="450" y="510" as="targetPoint" />
          </mxGeometry>
        </mxCell>
        <mxCell id="nUbN1-PU3jVC_skDTHLs-2" value="Client" style="rounded=0;whiteSpace=wrap;html=1;fillColor=#B266FF;" parent="1" vertex="1">
          <mxGeometry x="280" y="140" width="120" height="60" as="geometry" />
        </mxCell>
        <mxCell id="nUbN1-PU3jVC_skDTHLs-3" value="API Layer" style="rounded=0;whiteSpace=wrap;html=1;align=center;fillColor=#00FF80;" parent="1" vertex="1">
          <mxGeometry x="90" y="260" width="480" height="110" as="geometry" />
        </mxCell>
        <mxCell id="nUbN1-PU3jVC_skDTHLs-4" value="GET" style="rounded=0;whiteSpace=wrap;html=1;fillColor=#FF6666;" parent="1" vertex="1">
          <mxGeometry x="150" y="330" width="80" height="30" as="geometry" />
        </mxCell>
        <mxCell id="nUbN1-PU3jVC_skDTHLs-5" value="POST" style="rounded=0;whiteSpace=wrap;html=1;fillColor=#FFB366;" parent="1" vertex="1">
          <mxGeometry x="240" y="330" width="80" height="30" as="geometry" />
        </mxCell>
        <mxCell id="nUbN1-PU3jVC_skDTHLs-6" value="PUT" style="rounded=0;whiteSpace=wrap;html=1;fillColor=#FFFF66;" parent="1" vertex="1">
          <mxGeometry x="330" y="330" width="80" height="30" as="geometry" />
        </mxCell>
        <mxCell id="nUbN1-PU3jVC_skDTHLs-7" value="DELETE" style="rounded=0;whiteSpace=wrap;html=1;fillColor=#FF99CC;" parent="1" vertex="1">
          <mxGeometry x="430" y="330" width="80" height="30" as="geometry" />
        </mxCell>
        <mxCell id="nUbN1-PU3jVC_skDTHLs-9" value="Data Access Layer (Estb. connection to DB)" style="rounded=0;whiteSpace=wrap;html=1;align=center;fillColor=#3399FF;" parent="1" vertex="1">
          <mxGeometry x="90" y="620" width="480" height="110" as="geometry" />
        </mxCell>
        <mxCell id="nUbN1-PU3jVC_skDTHLs-10" value="DB" style="shape=cylinder3;whiteSpace=wrap;html=1;boundedLbl=1;backgroundOutline=1;size=15;fillColor=#FF66B3;" parent="1" vertex="1">
          <mxGeometry x="300" y="790" width="60" height="80" as="geometry" />
        </mxCell>
        <mxCell id="nUbN1-PU3jVC_skDTHLs-8" value="Service Layer (Business Logic)" style="rounded=0;whiteSpace=wrap;html=1;align=center;fillColor=#00FFFF;" parent="1" vertex="1">
          <mxGeometry x="90" y="450" width="480" height="110" as="geometry" />
        </mxCell>
        <mxCell id="nUbN1-PU3jVC_skDTHLs-11" value="" style="endArrow=classic;html=1;rounded=0;entryX=0.5;entryY=0;entryDx=0;entryDy=0;entryPerimeter=0;" parent="1" edge="1">
          <mxGeometry width="50" height="50" relative="1" as="geometry">
            <mxPoint x="319" y="730" as="sourcePoint" />
            <mxPoint x="319" y="790" as="targetPoint" />
          </mxGeometry>
        </mxCell>
        <mxCell id="nUbN1-PU3jVC_skDTHLs-12" value="" style="endArrow=classic;html=1;rounded=0;" parent="1" edge="1">
          <mxGeometry width="50" height="50" relative="1" as="geometry">
            <mxPoint x="341" y="790" as="sourcePoint" />
            <mxPoint x="341" y="730" as="targetPoint" />
          </mxGeometry>
        </mxCell>
        <mxCell id="dWVfgyp-xtZMibjRVM5w-2" value="" style="endArrow=classic;html=1;rounded=0;" edge="1" parent="1" target="nUbN1-PU3jVC_skDTHLs-3">
          <mxGeometry width="50" height="50" relative="1" as="geometry">
            <mxPoint x="650" y="230" as="sourcePoint" />
            <mxPoint x="450" y="410" as="targetPoint" />
          </mxGeometry>
        </mxCell>
        <mxCell id="dWVfgyp-xtZMibjRVM5w-3" value="Controller" style="text;html=1;align=center;verticalAlign=middle;resizable=0;points=[];autosize=1;strokeColor=none;fillColor=none;" vertex="1" parent="1">
          <mxGeometry x="635" y="210" width="80" height="30" as="geometry" />
        </mxCell>
      </root>
    </mxGraphModel>
  </diagram>
</mxfile>
